<?xml version="1.0" encoding="UTF-8" standalone="no"?>
<!DOCTYPE svg PUBLIC "-//W3C//DTD SVG 1.1//EN"
 "http://www.w3.org/Graphics/SVG/1.1/DTD/svg11.dtd">
<!-- Generated by graphviz version 2.43.0 (0)
 -->
<!-- Title: CloudSecure_svg Pages: 1 -->
<svg width="2633pt" height="287pt"
 viewBox="0.00 0.00 2633.19 287.00" xmlns="http://www.w3.org/2000/svg" xmlns:xlink="http://www.w3.org/1999/xlink">
<g id="graph0" class="graph" transform="scale(1 1) rotate(0) translate(4 283)">
<title>CloudSecure_svg</title>
<polygon fill="white" stroke="transparent" points="-4,4 -4,-283 2629.19,-283 2629.19,4 -4,4"/>
<!-- Client -->
<g id="node1" class="node">
<title>Client</title>
<ellipse fill="none" stroke="black" cx="103.34" cy="-126" rx="103.18" ry="18"/>
<text text-anchor="middle" x="103.34" y="-122.3" font-family="Times,serif" font-size="14.00">Cliente / Navegador</text>
</g>
<!-- CF -->
<g id="node2" class="node">
<title>CF</title>
<ellipse fill="none" stroke="black" cx="331.07" cy="-151" rx="88.28" ry="18"/>
<text text-anchor="middle" x="331.07" y="-147.3" font-family="Times,serif" font-size="14.00">CloudFront CDN</text>
</g>
<!-- Client&#45;&gt;CF -->
<g id="edge1" class="edge">
<title>Client&#45;&gt;CF</title>
<path fill="none" stroke="black" d="M190.97,-135.59C207.86,-137.46 225.57,-139.43 242.49,-141.3"/>
<polygon fill="black" stroke="black" points="242.58,-144.83 252.9,-142.45 243.35,-137.87 242.58,-144.83"/>
</g>
<!-- Cognito -->
<g id="node9" class="node">
<title>Cognito</title>
<ellipse fill="none" stroke="black" cx="550.36" cy="-99" rx="94.78" ry="18"/>
<text text-anchor="middle" x="550.36" y="-95.3" font-family="Times,serif" font-size="14.00">Cognito User Pool</text>
</g>
<!-- Client&#45;&gt;Cognito -->
<g id="edge14" class="edge">
<title>Client&#45;&gt;Cognito</title>
<path fill="none" stroke="black" d="M201.18,-120.12C274.56,-115.67 375.08,-109.57 449.25,-105.07"/>
<polygon fill="black" stroke="black" points="449.77,-108.55 459.54,-104.45 449.34,-101.56 449.77,-108.55"/>
</g>
<!-- WAF -->
<g id="node3" class="node">
<title>WAF</title>
<ellipse fill="none" stroke="black" cx="550.36" cy="-153" rx="77.19" ry="18"/>
<text text-anchor="middle" x="550.36" y="-149.3" font-family="Times,serif" font-size="14.00">WAF Web ACL</text>
</g>
<!-- CF&#45;&gt;WAF -->
<g id="edge2" class="edge">
<title>CF&#45;&gt;WAF</title>
<path fill="none" stroke="black" d="M419.51,-151.8C433.75,-151.94 448.49,-152.07 462.7,-152.2"/>
<polygon fill="black" stroke="black" points="462.91,-155.7 472.94,-152.3 462.98,-148.7 462.91,-155.7"/>
</g>
<!-- ALB -->
<g id="node4" class="node">
<title>ALB</title>
<ellipse fill="none" stroke="black" cx="807.34" cy="-126" rx="126.18" ry="18"/>
<text text-anchor="middle" x="807.34" y="-122.3" font-family="Times,serif" font-size="14.00">ALB / App Load Balancer</text>
</g>
<!-- WAF&#45;&gt;ALB -->
<g id="edge3" class="edge">
<title>WAF&#45;&gt;ALB</title>
<path fill="none" stroke="black" d="M621.03,-145.62C644.07,-143.18 670.31,-140.4 695.65,-137.72"/>
<polygon fill="black" stroke="black" points="696.1,-141.19 705.68,-136.66 695.36,-134.23 696.1,-141.19"/>
</g>
<!-- ASG -->
<g id="node5" class="node">
<title>ASG</title>
<ellipse fill="none" stroke="black" cx="1148.81" cy="-153" rx="179.27" ry="18"/>
<text text-anchor="middle" x="1148.81" y="-149.3" font-family="Times,serif" font-size="14.00">ASG / App servers (Private Subnets)</text>
</g>
<!-- ALB&#45;&gt;ASG -->
<g id="edge4" class="edge">
<title>ALB&#45;&gt;ASG</title>
<path fill="none" stroke="black" d="M918.09,-134.73C943.42,-136.74 970.8,-138.92 997.54,-141.05"/>
<polygon fill="black" stroke="black" points="997.5,-144.56 1007.74,-141.86 998.05,-137.58 997.5,-144.56"/>
</g>
<!-- CTBucket -->
<g id="node20" class="node">
<title>CTBucket</title>
<ellipse fill="none" stroke="black" cx="1148.81" cy="-72" rx="104.78" ry="18"/>
<text text-anchor="middle" x="1148.81" y="-68.3" font-family="Times,serif" font-size="14.00">S3 &#45; CloudTrail Logs</text>
</g>
<!-- ALB&#45;&gt;CTBucket -->
<g id="edge8" class="edge">
<title>ALB&#45;&gt;CTBucket</title>
<path fill="none" stroke="black" d="M892.25,-112.65C943.61,-104.48 1009.19,-94.05 1061.06,-85.8"/>
<polygon fill="black" stroke="black" points="1061.91,-89.21 1071.24,-84.18 1060.81,-82.29 1061.91,-89.21"/>
</g>
<!-- RDS -->
<g id="node6" class="node">
<title>RDS</title>
<ellipse fill="none" stroke="black" cx="1501.98" cy="-207" rx="133.78" ry="18"/>
<text text-anchor="middle" x="1501.98" y="-203.3" font-family="Times,serif" font-size="14.00">RDS &#45; DB (Private Subnet)</text>
</g>
<!-- ASG&#45;&gt;RDS -->
<g id="edge5" class="edge">
<title>ASG&#45;&gt;RDS</title>
<path fill="none" stroke="black" d="M1247.63,-168.04C1296.24,-175.52 1354.81,-184.52 1403.38,-191.99"/>
<polygon fill="black" stroke="black" points="1402.86,-195.45 1413.27,-193.51 1403.92,-188.53 1402.86,-195.45"/>
</g>
<!-- S3App -->
<g id="node7" class="node">
<title>S3App</title>
<ellipse fill="none" stroke="black" cx="1501.98" cy="-153" rx="120.48" ry="18"/>
<text text-anchor="middle" x="1501.98" y="-149.3" font-family="Times,serif" font-size="14.00">S3 &#45; Assets (Encrypted)</text>
</g>
<!-- ASG&#45;&gt;S3App -->
<g id="edge6" class="edge">
<title>ASG&#45;&gt;S3App</title>
<path fill="none" stroke="black" d="M1328.23,-153C1342.69,-153 1357.13,-153 1371.16,-153"/>
<polygon fill="black" stroke="black" points="1371.29,-156.5 1381.29,-153 1371.29,-149.5 1371.29,-156.5"/>
</g>
<!-- VPCFlow -->
<g id="node12" class="node">
<title>VPCFlow</title>
<ellipse fill="none" stroke="black" cx="1501.98" cy="-99" rx="80.69" ry="18"/>
<text text-anchor="middle" x="1501.98" y="-95.3" font-family="Times,serif" font-size="14.00">VPC Flow Logs</text>
</g>
<!-- ASG&#45;&gt;VPCFlow -->
<g id="edge11" class="edge">
<title>ASG&#45;&gt;VPCFlow</title>
<path fill="none" stroke="black" d="M1247.63,-137.96C1303.66,-129.34 1372.94,-118.69 1424.88,-110.7"/>
<polygon fill="black" stroke="black" points="1425.67,-114.12 1435.02,-109.14 1424.61,-107.2 1425.67,-114.12"/>
</g>
<!-- CloudWatch -->
<g id="node18" class="node">
<title>CloudWatch</title>
<ellipse fill="none" stroke="black" cx="1501.98" cy="-261" rx="137.58" ry="18"/>
<text text-anchor="middle" x="1501.98" y="-257.3" font-family="Times,serif" font-size="14.00">CloudWatch Logs &amp; Alarms</text>
</g>
<!-- ASG&#45;&gt;CloudWatch -->
<g id="edge21" class="edge">
<title>ASG&#45;&gt;CloudWatch</title>
<path fill="none" stroke="black" d="M1190.23,-170.59C1232.83,-188.57 1302.22,-216.31 1364.19,-234 1378,-237.94 1392.75,-241.51 1407.27,-244.66"/>
<polygon fill="black" stroke="black" points="1406.76,-248.13 1417.27,-246.77 1408.21,-241.28 1406.76,-248.13"/>
</g>
<!-- KMS -->
<g id="node8" class="node">
<title>KMS</title>
<ellipse fill="none" stroke="black" cx="1839.56" cy="-180" rx="152.17" ry="18"/>
<text text-anchor="middle" x="1839.56" y="-176.3" font-family="Times,serif" font-size="14.00">KMS Customer Managed Keys</text>
</g>
<!-- S3App&#45;&gt;KMS -->
<g id="edge7" class="edge">
<title>S3App&#45;&gt;KMS</title>
<path fill="none" stroke="black" d="M1608.24,-161.47C1638.33,-163.89 1671.56,-166.56 1703.18,-169.11"/>
<polygon fill="black" stroke="black" points="1703.14,-172.62 1713.39,-169.93 1703.7,-165.64 1703.14,-172.62"/>
</g>
<!-- Macie -->
<g id="node13" class="node">
<title>Macie</title>
<ellipse fill="none" stroke="black" cx="1839.56" cy="-126" rx="163.57" ry="18"/>
<text text-anchor="middle" x="1839.56" y="-122.3" font-family="Times,serif" font-size="14.00">Macie &#45; Sensitive Data Discovery</text>
</g>
<!-- S3App&#45;&gt;Macie -->
<g id="edge13" class="edge">
<title>S3App&#45;&gt;Macie</title>
<path fill="none" stroke="black" d="M1608.24,-144.53C1636.3,-142.27 1667.09,-139.8 1696.76,-137.41"/>
<polygon fill="black" stroke="black" points="1697.09,-140.89 1706.78,-136.6 1696.53,-133.92 1697.09,-140.89"/>
</g>
<!-- Cognito&#45;&gt;ALB -->
<g id="edge15" class="edge">
<title>Cognito&#45;&gt;ALB</title>
<path fill="none" stroke="black" d="M633.79,-107.73C653.42,-109.81 674.69,-112.06 695.37,-114.25"/>
<polygon fill="black" stroke="black" points="695.15,-117.75 705.46,-115.32 695.88,-110.78 695.15,-117.75"/>
</g>
<!-- CloudTrail -->
<g id="node10" class="node">
<title>CloudTrail</title>
<ellipse fill="none" stroke="black" cx="1501.98" cy="-45" rx="89.88" ry="18"/>
<text text-anchor="middle" x="1501.98" y="-41.3" font-family="Times,serif" font-size="14.00">CloudTrail / Lake</text>
</g>
<!-- GuardDuty -->
<g id="node11" class="node">
<title>GuardDuty</title>
<ellipse fill="none" stroke="black" cx="1839.56" cy="-72" rx="61.99" ry="18"/>
<text text-anchor="middle" x="1839.56" y="-68.3" font-family="Times,serif" font-size="14.00">GuardDuty</text>
</g>
<!-- CloudTrail&#45;&gt;GuardDuty -->
<g id="edge10" class="edge">
<title>CloudTrail&#45;&gt;GuardDuty</title>
<path fill="none" stroke="black" d="M1585.5,-51.64C1642.11,-56.19 1716.35,-62.17 1769.77,-66.47"/>
<polygon fill="black" stroke="black" points="1769.57,-69.96 1779.82,-67.27 1770.13,-62.98 1769.57,-69.96"/>
</g>
<!-- SecurityHub -->
<g id="node15" class="node">
<title>SecurityHub</title>
<ellipse fill="none" stroke="black" cx="2111.49" cy="-72" rx="72.29" ry="18"/>
<text text-anchor="middle" x="2111.49" y="-68.3" font-family="Times,serif" font-size="14.00">Security Hub</text>
</g>
<!-- GuardDuty&#45;&gt;SecurityHub -->
<g id="edge17" class="edge">
<title>GuardDuty&#45;&gt;SecurityHub</title>
<path fill="none" stroke="black" d="M1901.47,-72C1939.17,-72 1988.03,-72 2029.04,-72"/>
<polygon fill="black" stroke="black" points="2029.28,-75.5 2039.28,-72 2029.28,-68.5 2029.28,-75.5"/>
</g>
<!-- VPCFlow&#45;&gt;GuardDuty -->
<g id="edge12" class="edge">
<title>VPCFlow&#45;&gt;GuardDuty</title>
<path fill="none" stroke="black" d="M1578.29,-92.94C1635.69,-88.32 1714.08,-82.02 1769.79,-77.53"/>
<polygon fill="black" stroke="black" points="1770.23,-81.01 1779.92,-76.72 1769.67,-74.03 1770.23,-81.01"/>
</g>
<!-- Macie&#45;&gt;SecurityHub -->
<g id="edge18" class="edge">
<title>Macie&#45;&gt;SecurityHub</title>
<path fill="none" stroke="black" d="M1936.35,-111.46C1958.42,-107.74 1981.75,-103.5 2003.34,-99 2019.13,-95.71 2036.11,-91.66 2051.79,-87.72"/>
<polygon fill="black" stroke="black" points="2053.05,-91.01 2061.88,-85.15 2051.32,-84.23 2053.05,-91.01"/>
</g>
<!-- AWSConfig -->
<g id="node14" class="node">
<title>AWSConfig</title>
<ellipse fill="none" stroke="black" cx="1839.56" cy="-18" rx="94.48" ry="18"/>
<text text-anchor="middle" x="1839.56" y="-14.3" font-family="Times,serif" font-size="14.00">AWS Config Rules</text>
</g>
<!-- AWSConfig&#45;&gt;SecurityHub -->
<g id="edge16" class="edge">
<title>AWSConfig&#45;&gt;SecurityHub</title>
<path fill="none" stroke="black" d="M1914.54,-28.95C1942.46,-33.43 1974.46,-38.98 2003.34,-45 2019.13,-48.29 2036.11,-52.34 2051.79,-56.28"/>
<polygon fill="black" stroke="black" points="2051.32,-59.77 2061.88,-58.85 2053.05,-52.99 2051.32,-59.77"/>
</g>
<!-- Audit -->
<g id="node16" class="node">
<title>Audit</title>
<ellipse fill="none" stroke="black" cx="2422.41" cy="-99" rx="131.08" ry="18"/>
<text text-anchor="middle" x="2422.41" y="-95.3" font-family="Times,serif" font-size="14.00">Audit Manager &#45; Evidence</text>
</g>
<!-- SecurityHub&#45;&gt;Audit -->
<g id="edge19" class="edge">
<title>SecurityHub&#45;&gt;Audit</title>
<path fill="none" stroke="black" d="M2179.9,-77.89C2215.41,-81 2260.03,-84.9 2301.22,-88.5"/>
<polygon fill="black" stroke="black" points="2301.07,-92 2311.34,-89.38 2301.68,-85.02 2301.07,-92"/>
</g>
<!-- LambdaAuto -->
<g id="node17" class="node">
<title>LambdaAuto</title>
<ellipse fill="none" stroke="black" cx="2422.41" cy="-45" rx="202.56" ry="18"/>
<text text-anchor="middle" x="2422.41" y="-41.3" font-family="Times,serif" font-size="14.00">Lambda / SSM Automation (Remediation)</text>
</g>
<!-- SecurityHub&#45;&gt;LambdaAuto -->
<g id="edge20" class="edge">
<title>SecurityHub&#45;&gt;LambdaAuto</title>
<path fill="none" stroke="black" d="M2179.9,-66.11C2205.66,-63.86 2236.21,-61.19 2266.78,-58.51"/>
<polygon fill="black" stroke="black" points="2267.48,-61.97 2277.14,-57.61 2266.87,-54.99 2267.48,-61.97"/>
</g>
<!-- SNS -->
<g id="node19" class="node">
<title>SNS</title>
<ellipse fill="none" stroke="black" cx="1839.56" cy="-261" rx="128.08" ry="18"/>
<text text-anchor="middle" x="1839.56" y="-257.3" font-family="Times,serif" font-size="14.00">SNS Alerts (Pager/Email)</text>
</g>
<!-- CloudWatch&#45;&gt;SNS -->
<g id="edge22" class="edge">
<title>CloudWatch&#45;&gt;SNS</title>
<path fill="none" stroke="black" d="M1639.96,-261C1660.19,-261 1681.04,-261 1701.28,-261"/>
<polygon fill="black" stroke="black" points="1701.48,-264.5 1711.48,-261 1701.48,-257.5 1701.48,-264.5"/>
</g>
<!-- CTBucket&#45;&gt;CloudTrail -->
<g id="edge9" class="edge">
<title>CTBucket&#45;&gt;CloudTrail</title>
<path fill="none" stroke="black" d="M1244.84,-64.69C1295.39,-60.81 1357.31,-56.05 1407.61,-52.18"/>
<polygon fill="black" stroke="black" points="1408.13,-55.65 1417.83,-51.39 1407.59,-48.67 1408.13,-55.65"/>
</g>
</g>
</svg>
